HIERARCHY
ROOT Hips
{
  OFFSET -0.127988 91.1697 1.07616
  CHANNELS 6 Xposition Yposition Zposition Zrotation Xrotation Yrotation
  JOINT Spine
  {
    OFFSET 0 10.1816 0.1315
    CHANNELS 6 Xposition Yposition Zposition Zrotation Xrotation Yrotation
    JOINT Spine1
    {
      OFFSET 0 10.0835 -1.0008
      CHANNELS 6 Xposition Yposition Zposition Zrotation Xrotation Yrotation
      JOINT Spine2
      {
        OFFSET 0 9.1 -1.3734
        CHANNELS 6 Xposition Yposition Zposition Zrotation Xrotation Yrotation
        JOINT Neck
        {
          OFFSET 0 16.6717 -2.5162
          CHANNELS 6 Xposition Yposition Zposition Zrotation Xrotation Yrotation
          JOINT Head
          {
            OFFSET 0 9.6179 1.685
            CHANNELS 6 Xposition Yposition Zposition Zrotation Xrotation Yrotation
            JOINT HeadTop_End
            {
              OFFSET 0 17.8152 2.585
              CHANNELS 6 Xposition Yposition Zposition Zrotation Xrotation Yrotation
              End Site
              {
                OFFSET 0 0 0
              }
            }
            JOINT LeftEye
            {
              OFFSET 3.0676 6.4095 9.2836
              CHANNELS 6 Xposition Yposition Zposition Zrotation Xrotation Yrotation
              End Site
              {
                OFFSET 0 0 0
              }
            }
            JOINT RightEye
            {
              OFFSET -3.0676 6.4095 9.2835
              CHANNELS 6 Xposition Yposition Zposition Zrotation Xrotation Yrotation
              End Site
              {
                OFFSET 0 0 0
              }
            }
          }
        }
        JOINT LeftShoulder
        {
          OFFSET 4.5704 10.946 -2.628
          CHANNELS 6 Xposition Yposition Zposition Zrotation Xrotation Yrotation
          JOINT LeftArm
          {
            OFFSET 10.5924 -0.5246 -2.2321
            CHANNELS 6 Xposition Yposition Zposition Zrotation Xrotation Yrotation
            JOINT LeftForeArm
            {
              OFFSET 27.8415 -0.0001 0
              CHANNELS 6 Xposition Yposition Zposition Zrotation Xrotation Yrotation
              JOINT LeftHand
              {
                OFFSET 28.3288 0 0
                CHANNELS 6 Xposition Yposition Zposition Zrotation Xrotation Yrotation
                JOINT LeftHandThumb1
                {
                  OFFSET 2.4661 -1.575 2.6824
                  CHANNELS 6 Xposition Yposition Zposition Zrotation Xrotation Yrotation
                  JOINT LeftHandThumb2
                  {
                    OFFSET 3.2298 -1.8647 1.8647
                    CHANNELS 6 Xposition Yposition Zposition Zrotation Xrotation Yrotation
                    JOINT LeftHandThumb3
                    {
                      OFFSET 2.6526 -1.5315 1.5315
                      CHANNELS 6 Xposition Yposition Zposition Zrotation Xrotation Yrotation
                      End Site
                      {
                        OFFSET 1.9546 -1.1285 1.1285
                      }
                    }
                  }
                }
                JOINT LeftHandIndex1
                {
                  OFFSET 9.1093 -0.5171 2.2601
                  CHANNELS 6 Xposition Yposition Zposition Zrotation Xrotation Yrotation
                  JOINT LeftHandIndex2
                  {
                    OFFSET 3.6764 0 0
                    CHANNELS 6 Xposition Yposition Zposition Zrotation Xrotation Yrotation
                    JOINT LeftHandIndex3
                    {
                      OFFSET 2.8831 0 0
                      CHANNELS 6 Xposition Yposition Zposition Zrotation Xrotation Yrotation
                      End Site
                      {
                        OFFSET 2.3927 0 0
                      }
                    }
                  }
                }
                JOINT LeftHandMiddle1
                {
                  OFFSET 9.5334 0 0
                  CHANNELS 6 Xposition Yposition Zposition Zrotation Xrotation Yrotation
                  JOINT LeftHandMiddle2
                  {
                    OFFSET 3.6982 0 0
                    CHANNELS 6 Xposition Yposition Zposition Zrotation Xrotation Yrotation
                    JOINT LeftHandMiddle3
                    {
                      OFFSET 2.9509 0 0
                      CHANNELS 6 Xposition Yposition Zposition Zrotation Xrotation Yrotation
                      End Site
                      {
                        OFFSET 2.8339 0 0
                      }
                    }
                  }
                }
                JOINT LeftHandRing1
                {
                  OFFSET 9.1045 -0.0439 -1.8651
                  CHANNELS 6 Xposition Yposition Zposition Zrotation Xrotation Yrotation
                  JOINT LeftHandRing2
                  {
                    OFFSET 3.154 0 0
                    CHANNELS 6 Xposition Yposition Zposition Zrotation Xrotation Yrotation
                    JOINT LeftHandRing3
                    {
                      OFFSET 2.9377 0 0
                      CHANNELS 6 Xposition Yposition Zposition Zrotation Xrotation Yrotation
                      End Site
                      {
                        OFFSET 2.6475 0 0
                      }
                    }
                  }
                }
                JOINT LeftHandPinky1
                {
                  OFFSET 8.0778 -0.4887 -3.8061
                  CHANNELS 6 Xposition Yposition Zposition Zrotation Xrotation Yrotation
                  JOINT LeftHandPinky2
                  {
                    OFFSET 3.6 0 0
                    CHANNELS 6 Xposition Yposition Zposition Zrotation Xrotation Yrotation
                    JOINT LeftHandPinky3
                    {
                      OFFSET 2.1142 0 0
                      CHANNELS 6 Xposition Yposition Zposition Zrotation Xrotation Yrotation
                      End Site
                      {
                        OFFSET 1.9757 0 0
                      }
                    }
                  }
                }
              }
            }
          }
        }
        JOINT RightShoulder
        {
          OFFSET -4.57 10.9462 -2.628
          CHANNELS 6 Xposition Yposition Zposition Zrotation Xrotation Yrotation
          JOINT RightArm
          {
            OFFSET -10.5928 -0.5248 -2.2321
            CHANNELS 6 Xposition Yposition Zposition Zrotation Xrotation Yrotation
            JOINT RightForeArm
            {
              OFFSET -27.8415 0 0
              CHANNELS 6 Xposition Yposition Zposition Zrotation Xrotation Yrotation
              JOINT RightHand
              {
                OFFSET -28.3288 0 0.0001
                CHANNELS 6 Xposition Yposition Zposition Zrotation Xrotation Yrotation
                JOINT RightHandPinky1
                {
                  OFFSET -8.0767 -0.4885 -3.806
                  CHANNELS 6 Xposition Yposition Zposition Zrotation Xrotation Yrotation
                  JOINT RightHandPinky2
                  {
                    OFFSET -3.6 0 0.0001
                    CHANNELS 6 Xposition Yposition Zposition Zrotation Xrotation Yrotation
                    JOINT RightHandPinky3
                    {
                      OFFSET -2.1142 0 0
                      CHANNELS 6 Xposition Yposition Zposition Zrotation Xrotation Yrotation
                      End Site
                      {
                        OFFSET -1.9757 0 0
                      }
                    }
                  }
                }
                JOINT RightHandRing1
                {
                  OFFSET -9.1036 -0.0439 -1.8651
                  CHANNELS 6 Xposition Yposition Zposition Zrotation Xrotation Yrotation
                  JOINT RightHandRing2
                  {
                    OFFSET -3.154 0 0
                    CHANNELS 6 Xposition Yposition Zposition Zrotation Xrotation Yrotation
                    JOINT RightHandRing3
                    {
                      OFFSET -2.9377 0 0
                      CHANNELS 6 Xposition Yposition Zposition Zrotation Xrotation Yrotation
                      End Site
                      {
                        OFFSET -2.6475 0 0
                      }
                    }
                  }
                }
                JOINT RightHandMiddle1
                {
                  OFFSET -9.5325 0 0
                  CHANNELS 6 Xposition Yposition Zposition Zrotation Xrotation Yrotation
                  JOINT RightHandMiddle2
                  {
                    OFFSET -3.6982 0 0
                    CHANNELS 6 Xposition Yposition Zposition Zrotation Xrotation Yrotation
                    JOINT RightHandMiddle3
                    {
                      OFFSET -2.9509 0 0
                      CHANNELS 6 Xposition Yposition Zposition Zrotation Xrotation Yrotation
                      End Site
                      {
                        OFFSET -2.8339 0 0.0001
                      }
                    }
                  }
                }
                JOINT RightHandIndex1
                {
                  OFFSET -9.1083 -0.5168 2.2601
                  CHANNELS 6 Xposition Yposition Zposition Zrotation Xrotation Yrotation
                  JOINT RightHandIndex2
                  {
                    OFFSET -3.6764 0 0
                    CHANNELS 6 Xposition Yposition Zposition Zrotation Xrotation Yrotation
                    JOINT RightHandIndex3
                    {
                      OFFSET -2.8831 0 0
                      CHANNELS 6 Xposition Yposition Zposition Zrotation Xrotation Yrotation
                      End Site
                      {
                        OFFSET -2.3927 0 0
                      }
                    }
                  }
                }
                JOINT RightHandThumb1
                {
                  OFFSET -2.4648 -1.5727 2.6826
                  CHANNELS 6 Xposition Yposition Zposition Zrotation Xrotation Yrotation
                  JOINT RightHandThumb2
                  {
                    OFFSET -3.2298 -1.8647 1.8647
                    CHANNELS 6 Xposition Yposition Zposition Zrotation Xrotation Yrotation
                    JOINT RightHandThumb3
                    {
                      OFFSET -2.6526 -1.5314 1.5314
                      CHANNELS 6 Xposition Yposition Zposition Zrotation Xrotation Yrotation
                      End Site
                      {
                        OFFSET -1.9546 -1.1285 1.1285
                      }
                    }
                  }
                }
              }
            }
          }
        }
      }
    }
  }
  JOINT LeftUpLeg
  {
    OFFSET 8.2078 -6.7517 -1.5996
    CHANNELS 6 Xposition Yposition Zposition Zrotation Xrotation Yrotation
    JOINT LeftLeg
    {
      OFFSET 0 -44.3705 0.2846
      CHANNELS 6 Xposition Yposition Zposition Zrotation Xrotation Yrotation
      JOINT LeftFoot
      {
        OFFSET 0 -44.4279 -2.9822
        CHANNELS 6 Xposition Yposition Zposition Zrotation Xrotation Yrotation
        JOINT LeftToeBase
        {
          OFFSET 0 -8.7287 10.7106
          CHANNELS 6 Xposition Yposition Zposition Zrotation Xrotation Yrotation
          End Site
          {
            OFFSET 0 -0.0007 9.2781
          }
        }
      }
    }
  }
  JOINT RightUpLeg
  {
    OFFSET -8.2078 -6.7517 -1.5996
    CHANNELS 6 Xposition Yposition Zposition Zrotation Xrotation Yrotation
    JOINT RightLeg
    {
      OFFSET 0 -44.3705 0.2862
      CHANNELS 6 Xposition Yposition Zposition Zrotation Xrotation Yrotation
      JOINT RightFoot
      {
        OFFSET 0 -44.4277 -2.9838
        CHANNELS 6 Xposition Yposition Zposition Zrotation Xrotation Yrotation
        JOINT RightToeBase
        {
          OFFSET 0 -8.7287 10.7106
          CHANNELS 6 Xposition Yposition Zposition Zrotation Xrotation Yrotation
          End Site
          {
            OFFSET 0 -0.0007 9.2781
          }
        }
      }
    }
  }
}
MOTION
Frames:	4
Frame Time:	0.0333333
-0.127988 91.1697 1.07616 -1.02967 -0.239012 -0.734169 0 10.1816 0.1315 0.336711 16.588 0.133211 2.22045e-016 10.0835 -1.0008 0.959234 20.1243 0.13985 0 9.1 -1.3734 0.950773 12.5964 0.157258 0 16.6717 -2.5162 0.127423 2.9716 -0.922039 -2.22045e-016 9.6179 1.685 -1.56102 -21.7952 2.46277 -3.33067e-016 17.8152 2.585 -1.98785e-016 -9.54166e-015 1.98785e-016 3.0676 6.4095 9.2836 -1.98785e-016 -9.54166e-015 1.98785e-016 -3.0676 6.4095 9.2835 -1.98785e-016 -9.54166e-015 1.98785e-016 4.5704 10.946 -2.628 8.70346 17.5943 -20.4755 10.5924 -0.5246 -2.2321 -36.7993 -17.0658 -33.6961 27.8415 -0.0001 0 -12.7043 13.4055 -50.9285 28.3288 0 3.55271e-015 -13.6327 -22.6954 4.17599 2.4661 -1.575 2.6824 -26.4503 37.3436 15.7573 3.2298 -1.8647 1.8647 18.1629 11.6763 18.4179 2.6526 -1.5315 1.5315 21.2262 9.0001 9.88837 9.1093 -0.5171 2.2601 -40.4547 14.2168 11.675 3.6764 0 -1.77636e-015 -31.7952 1.59616 -9.9426 2.8831 -1.42109e-014 0 -12.4919 -2.82326 -13.1385 9.5334 -3.55271e-015 0 -33.2172 -12.9083 9.31188 3.6982 0 -3.55271e-015 -43.5776 -1.48811 3.72155 2.9509 1.42109e-014 1.77636e-015 -20.0748 -0.327848 1.85211 9.1045 -0.0439 -1.8651 -31.589 -22.14 9.80376 3.154 -1.42109e-014 0 -43.5776 -1.48812 3.72156 2.9377 1.42109e-014 1.77636e-015 -24.9858 -0.505092 2.27938 8.0778 -0.4887 -3.8061 -38.154 -15.123 -7.90557 3.6 -7.10543e-015 0 -30.556 -0.749596 2.74373 2.1142 0 0 -40.9742 -1.32294 3.53981 -4.57 10.9462 -2.628 -8.08589 16.2923 15.9045 -10.5928 -0.5248 -2.2321 44.5241 -14.2666 27.6978 -27.8415 0 1.42109e-014 18.9661 -2.53815 67.1786 -28.3288 0 0.0001 14.821 -14.8167 2.86934 -8.0767 -0.4885 -3.806 38.154 -15.1228 7.90446 -3.6 -7.10543e-015 0.0001 30.5561 -0.748689 -2.74195 -2.1142 7.10543e-015 -1.42109e-014 40.9742 -1.32274 -3.53929 -9.1036 -0.0439 -1.8651 31.5893 -22.1399 -9.80327 -3.154 0 7.10543e-015 43.5777 -1.4879 -3.721 -2.9377 -1.42109e-014 -7.10543e-015 24.9858 -0.50502 -2.27905 -9.5325 7.10543e-015 0 33.2174 -12.9082 -9.3114 -3.6982 0 0 43.5777 -1.48789 -3.721 -2.9509 0 0 20.0748 -0.327805 -1.85387 -9.1083 -0.5168 2.2601 40.4547 14.2169 -11.6745 -3.6764 0 0 31.7951 1.59627 9.94302 -2.8831 0 0 12.4917 -2.82324 13.1387 -2.4648 -1.5727 2.6826 26.4499 37.3434 -15.7564 -3.2298 -1.8647 1.8647 -18.1614 11.6761 -18.417 -2.6526 -1.5314 1.5314 -21.2272 9.00075 -9.8897 8.2078 -6.7517 -1.5996 29.6853 -30.8629 19.2468 0 -44.3705 0.2846 -12.8349 48.893 4.9118 3.55271e-015 -44.4279 -2.9822 -8.62855 -11.8257 -10.0599 0 -8.7287 10.7106 -1.5449 -3.43162 -12.983 -8.2078 -6.7517 -1.5996 -24.8134 -31.6054 -27.3607 0 -44.3705 0.2862 -4.22148 49.3422 8.86796 0 -44.4277 -2.9838 11.563 -11.2906 5.87435 3.55271e-015 -8.7287 10.7106 11.5658 -4.11896 10.6531 
-0.129978 91.3428 1.134 -1.02565 0.249874 -0.735053 2.22045e-016 10.1816 0.1315 0.73851 16.0512 0.336696 0 10.0835 -1.0008 1.30821 19.4667 0.435482 0 9.1 -1.3734 1.3343 11.9402 0.446772 -8.88178e-016 16.6717 -2.5162 1.88452 4.27551 0.195807 0 9.6179 1.685 -2.70244 -24.4124 1.0617 8.88178e-016 17.8152 2.585 -1.10348e-032 -6.36111e-015 -9.93923e-017 3.0676 6.4095 9.2836 -1.10348e-032 -6.36111e-015 -9.93923e-017 -3.0676 6.4095 9.2835 -1.10348e-032 -6.36111e-015 -9.93923e-017 4.5704 10.946 -2.628 12.9942 16.5633 -23.1143 10.5924 -0.5246 -2.2321 -38.2151 -22.4338 -22.9902 27.8415 -0.0001 0 -18.5561 6.54723 -48.6114 28.3288 7.10543e-015 1.77636e-015 -20.0796 -18.0991 -3.51771 2.4661 -1.575 2.6824 -25.9107 37.2666 15.404 3.2298 -1.8647 1.8647 18.3224 11.6459 18.3822 2.6526 -1.5315 1.5315 21.375 8.95103 9.86817 9.1093 -0.5171 2.2601 -40.4546 14.2162 11.6753 3.6764 0 1.77636e-015 -31.7952 1.59616 -9.9426 2.8831 0 0 -12.4912 -2.82359 -13.1407 9.5334 0 0 -33.2172 -12.9085 9.31173 3.6982 3.55271e-015 0 -43.5776 -1.48811 3.72155 2.9509 -1.42109e-014 -3.55271e-015 -20.074 -0.327824 1.85204 9.1045 -0.0439 -1.8651 -31.589 -22.1402 9.80362 3.154 0 0 -43.5776 -1.48812 3.72155 2.9377 0 -3.55271e-015 -24.9853 -0.505076 2.27935 8.0778 -0.4887 -3.8061 -38.1539 -15.1219 -7.90435 3.6 0 -3.55271e-015 -30.556 -0.7496 2.74374 2.1142 0 0 -40.9737 -1.32291 3.53978 -4.57 10.9462 -2.628 -9.76765 16.2603 16.2572 -10.5928 -0.5248 -2.2321 37.4887 -8.55084 4.18561 -27.8415 0 1.42109e-014 14.123 -1.73094 61.0149 -28.3288 0 0.0001 32.2382 -12.8923 19.2319 -8.0767 -0.4885 -3.806 41.551 -19.3115 8.46092 -3.6 -7.10543e-015 0.0001 35.3952 -1.61196 -4.79526 -2.1142 -1.42109e-014 0 41.1533 -1.33383 -3.55203 -9.1036 -0.0439 -1.8651 31.5892 -22.1385 -9.80412 -3.154 7.10543e-015 7.10543e-015 43.4623 -1.4804 -3.71311 -2.9377 0 -1.77636e-015 24.9854 -0.505006 -2.27902 -9.5325 1.77636e-015 0 33.1795 -12.9033 -9.31548 -3.6982 -7.10543e-015 -1.77636e-015 43.354 -1.47337 -3.70567 -2.9509 0 -1.77636e-015 20.1615 -0.330609 -1.86153 -9.1083 -0.5168 2.2601 41.2334 14.0751 -12.1929 -3.6764 -7.10543e-015 3.55271e-015 35.8152 1.37999 8.29893 -2.8831 -1.42109e-014 0 12.4914 -2.82323 13.1394 -2.4648 -1.5727 2.6826 23.1523 37.7997 -13.6999 -3.2298 -1.8647 1.8647 -18.1612 11.6778 -18.4174 -2.6526 -1.5314 1.5314 -21.2276 9.00162 -9.89029 8.2078 -6.7517 -1.5996 29.176 -31.2732 19.0427 7.10543e-015 -44.3705 0.2846 -11.7007 48.5655 4.28529 3.55271e-015 -44.4279 -2.9822 -9.04245 -11.7236 -9.80235 0 -8.7287 10.7106 -1.54487 -3.43161 -12.9824 -8.2078 -6.7517 -1.5996 -24.4135 -31.9309 -25.8445 0 -44.3705 0.2862 -3.25425 48.8871 7.16117 0 -44.4277 -2.9838 11.8078 -11.1425 5.56544 -7.10543e-015 -8.7287 10.7106 11.5643 -4.1183 10.6533 
-0.148344 91.6429 1.2079 -1.02012 0.874128 -0.731234 0 10.1816 0.1315 1.18352 15.2973 0.564338 0 10.0835 -1.0008 1.70189 18.715 0.737483 0 9.1 -1.3734 1.76294 11.19 0.74369 0 16.6717 -2.5162 3.80461 5.89981 1.40686 3.55271e-015 9.6179 1.685 -4.01713 -27.4651 -0.696117 0 17.8152 2.585 -4.41053e-016 -6.36111e-015 4.34841e-016 3.0676 6.4095 9.2836 -4.41053e-016 -6.36111e-015 4.34841e-016 -3.0676 6.4095 9.2835 -4.41053e-016 -6.36111e-015 4.34841e-016 4.5704 10.946 -2.628 12.3921 16.8802 -21.0132 10.5924 -0.5246 -2.2321 -29.8204 -27.5759 -9.85363 27.8415 -0.0001 1.42109e-014 -21.4509 1.5038 -49.062 28.3288 0 0 -26.9008 -20.2865 0.27021 2.4661 -1.575 2.6824 -25.3725 37.1856 15.0517 3.2298 -1.8647 1.8647 18.4816 11.6156 18.3466 2.6526 -1.5315 1.5315 21.5238 8.90191 9.84825 9.1093 -0.5171 2.2601 -40.4546 14.2155 11.6756 3.6764 -7.10543e-015 3.55271e-015 -31.7952 1.59615 -9.9426 2.8831 7.10543e-015 -3.55271e-015 -12.4903 -2.82397 -13.1431 9.5334 0 0 -33.2172 -12.9088 9.31158 3.6982 1.77636e-015 0 -43.5776 -1.48811 3.72155 2.9509 0 7.10543e-015 -20.0731 -0.3278 1.85197 9.1045 -0.0439 -1.8651 -31.589 -22.1405 9.80347 3.154 -2.22045e-016 3.55271e-015 -43.5776 -1.48811 3.72155 2.9377 1.42109e-014 -3.55271e-015 -24.9847 -0.50505 2.2793 8.0778 -0.4887 -3.8061 -38.1537 -15.1207 -7.90293 3.6 -1.77636e-015 0 -30.556 -0.749601 2.74373 2.1142 7.10543e-015 -3.55271e-015 -40.9732 -1.32287 3.53975 -4.57 10.9462 -2.628 -13.8151 15.9788 17.9954 -10.5928 -0.5248 -2.2321 38.9233 -3.76682 -16.2254 -27.8415 -7.10543e-015 -1.42109e-014 8.65352 -0.532005 54.5126 -28.3288 7.10543e-015 0.0001 44.2321 -10.1106 32.6561 -8.0767 -0.4885 -3.806 45.527 -23.9702 9.19069 -3.6 7.10543e-015 0.0001 40.9208 -2.64674 -7.00099 -2.1142 -1.42109e-014 -7.10543e-015 41.3323 -1.34496 -3.56472 -9.1036 -0.0439 -1.8651 31.5891 -22.1368 -9.8051 -3.154 7.10543e-015 0 43.3469 -1.47292 -3.70519 -2.9377 -1.42109e-014 0 24.985 -0.504989 -2.27899 -9.5325 7.10543e-015 -1.77636e-015 33.1416 -12.8987 -9.31944 -3.6982 0 0 43.1302 -1.45892 -3.69031 -2.9509 0 0 20.248 -0.333424 -1.86918 -9.1083 -0.5168 2.2601 42.1182 13.9095 -12.7792 -3.6764 0 0 40.3726 1.10292 6.43123 -2.8831 0 2.66454e-015 12.491 -2.82321 13.1403 -2.4648 -1.5727 2.6826 19.3372 38.2854 -11.3463 -3.2298 -1.8647 1.8647 -18.161 11.6798 -18.4179 -2.6526 -1.5314 1.5314 -21.2281 9.00262 -9.89092 8.2078 -6.7517 -1.5996 28.2481 -31.7621 18.0332 7.10543e-015 -44.3705 0.2846 -10.5342 47.8499 2.53582 -3.55271e-015 -44.4279 -2.9822 -9.31689 -11.7899 -7.75057 0 -8.7287 10.7106 -1.54483 -3.43163 -12.9818 -8.2078 -6.7517 -1.5996 -24.0297 -32.1641 -23.9169 -7.10543e-015 -44.3705 0.2862 -1.51905 48.0865 4.83199 0 -44.4277 -2.9838 11.8783 -10.8808 5.00696 0 -8.7287 10.7106 11.5624 -4.11764 10.6535 
-0.176954 91.7124 1.29153 -1.02216 1.58675 -0.720046 -2.22045e-016 10.1816 0.1315 1.49743 14.9813 0.791252 -2.22045e-016 10.0835 -1.0008 1.92965 18.2865 1.05408 0 9.1 -1.3734 2.02852 10.7632 1.05368 -1.77636e-015 16.6717 -2.5162 5.70797 7.46926 2.47889 -7.10543e-015 9.6179 1.685 -5.39314 -30.4119 -2.56737 1.77636e-015 17.8152 2.585 -7.45443e-016 -3.18055e-015 -9.93923e-017 3.0676 6.4095 9.2836 -7.45443e-016 -3.18055e-015 -9.93923e-017 -3.0676 6.4095 9.2835 -7.45443e-016 -3.18055e-015 -9.93923e-017 4.5704 10.946 -2.628 15.1967 17.253 -17.8707 10.5924 -0.5246 -2.2321 -20.8084 -24.8013 1.32248 27.8415 -0.0001 0 -25.3115 -5.25341 -45.8084 28.3288 1.42109e-014 3.55271e-015 -20.556 -18.9705 5.07785 2.4661 -1.575 2.6824 -24.8358 37.1005 14.7005 3.2298 -1.8647 1.8647 18.6407 11.5853 18.311 2.6526 -1.5315 1.5315 21.6725 8.85273 9.82852 9.1093 -0.5171 2.2601 -40.4546 14.2148 11.676 3.6764 0 -7.10543e-015 -31.7952 1.59616 -9.94259 2.8831 -3.55271e-015 -3.55271e-015 -12.4895 -2.82437 -13.1457 9.5334 1.42109e-014 0 -33.2172 -12.9091 9.31142 3.6982 -1.42109e-014 7.10543e-015 -43.5776 -1.48811 3.72155 2.9509 -7.10543e-015 0 -20.0722 -0.327773 1.8519 9.1045 -0.0439 -1.8651 -31.589 -22.1408 9.8033 3.154 0 0 -43.5776 -1.48812 3.72156 2.9377 -7.10543e-015 -7.10543e-015 -24.9841 -0.505032 2.27925 8.0778 -0.4887 -3.8061 -38.1535 -15.1194 -7.90145 3.6 0 0 -30.556 -0.7496 2.74373 2.1142 0 -3.55271e-015 -40.9726 -1.32284 3.5397 -4.57 10.9462 -2.628 -18.7262 15.5584 20.3249 -10.5928 -0.5248 -2.2321 45.6637 -2.21602 -31.6371 -27.8415 -7.10543e-015 0 3.62745 0.807858 45.5555 -28.3288 7.10543e-015 0.0001 52.0557 -7.4838 43.2136 -8.0767 -0.4885 -3.806 49.8699 -28.7624 10.0839 -3.6 0 0.0001 46.7826 -3.78782 -9.17197 -2.1142 1.42109e-014 0 41.5112 -1.35613 -3.57739 -9.1036 -0.0439 -1.8651 31.5889 -22.1351 -9.80612 -3.154 -3.55271e-015 0 43.2315 -1.46545 -3.69726 -2.9377 0 -1.42109e-014 24.9846 -0.504981 -2.27895 -9.5325 3.55271e-015 0 33.1036 -12.8941 -9.32335 -3.6982 0 -7.10543e-015 42.9065 -1.44453 -3.67487 -2.9509 0 0 20.3346 -0.336257 -1.87683 -9.1083 -0.5168 2.2601 43.0509 13.7299 -13.3942 -3.6764 -1.42109e-014 7.10543e-015 45.1655 0.775556 4.46508 -2.8831 1.42109e-014 0 12.4906 -2.82319 13.1412 -2.4648 -1.5727 2.6826 15.238 38.7571 -8.84515 -3.2298 -1.8647 1.8647 -18.1607 11.6819 -18.4184 -2.6526 -1.5314 1.5314 -21.2287 9.0037 -9.89159 8.2078 -6.7517 -1.5996 27.5572 -32.6075 17.2304 -7.10543e-015 -44.3705 0.2846 -9.48044 47.7424 1.0649 7.10543e-015 -44.4279 -2.9822 -9.63882 -12.1003 -6.00059 0 -8.7287 10.7106 -1.54479 -3.43163 -12.9812 -8.2078 -6.7517 -1.5996 -24.0343 -32.72 -22.1871 3.55271e-015 -44.3705 0.2862 0.503038 47.8624 1.90927 -3.55271e-015 -44.4277 -2.9838 11.9418 -10.7835 4.99815 3.55271e-015 -8.7287 10.7106 11.5613 -4.11705 10.6544 
